<?xml version="1.0" encoding="UTF-8"?>
<svg width="24px" height="24px" viewBox="0 0 24 24" version="1.1" xmlns="http://www.w3.org/2000/svg" xmlns:xlink="http://www.w3.org/1999/xlink">
    <title>切片</title>
    <defs>
        <linearGradient x1="79.8177338%" y1="87.0384598%" x2="34.1544342%" y2="0%" id="linearGradient-1">
            <stop stop-color="#FFD59C" offset="0%"></stop>
            <stop stop-color="#FFE1BA" offset="100%"></stop>
        </linearGradient>
        <path d="M6.97540796,0.042122069 L7.19813506,0.042122069 C11.5444874,0.042122069 13.7685846,4.43047044 13.7685846,7.33137276 C14.0783252,7.51721709 14.1787629,7.91896802 13.9929186,8.22870857 C13.8747183,8.42570903 13.6618238,8.54624788 13.4320837,8.54624788 L0.691751483,8.54624788 C0.337577408,8.54624788 0.0504625906,8.25913306 0.0504625906,7.90495899 C0.0504625906,7.68229853 0.165780084,7.47715587 0.352343981,7.36083952 L0.404958372,7.33137276 C0.404958372,4.43047044 2.58131005,0.042122069 6.97540796,0.042122069 Z" id="path-2"></path>
        <circle id="path-4" cx="1.97432916" cy="1.97432916" r="1.97432916"></circle>
        <filter x="-25.3%" y="-25.3%" width="150.7%" height="150.7%" filterUnits="objectBoundingBox" id="filter-5">
            <feOffset dx="-2" dy="0" in="SourceAlpha" result="shadowOffsetInner1"></feOffset>
            <feComposite in="shadowOffsetInner1" in2="SourceAlpha" operator="arithmetic" k2="-1" k3="1" result="shadowInnerInner1"></feComposite>
            <feColorMatrix values="0 0 0 0 0.909803922   0 0 0 0 0.905882353   0 0 0 0 0.91372549  0 0 0 1 0" type="matrix" in="shadowInnerInner1"></feColorMatrix>
        </filter>
    </defs>
    <g id="定稿" stroke="none" stroke-width="1" fill="none" fill-rule="evenodd">
        <g id="保险-发行保险交互展示" transform="translate(-326.000000, -362.000000)">
            <g id="编组-8备份-2" transform="translate(326.000000, 362.000000)">
                <g id="编组-11" fill="url(#linearGradient-1)">
                    <circle id="椭圆形" cx="12" cy="12" r="12"></circle>
                </g>
                <g id="编组-4" transform="translate(4.800000, 7.200000)">
                    <g id="头" transform="translate(0.000000, 0.767795)">
                        <mask id="mask-3" fill="white">
                            <use xlink:href="#path-2"></use>
                        </mask>
                        <use id="帽体" fill="#FF8200" xlink:href="#path-2"></use>
                        <path d="M4.47515091,-0.0137106192 L7.1916394,-0.0137106192 C10.137915,-0.0137106192 12.4637508,4.11076148 12.4637508,7.47777591 L13.2458806,7.92738257 C13.4034355,8.01795286 13.4577372,8.21909804 13.3671669,8.37665291 C13.3084682,8.47876445 13.1996694,8.54171576 13.0818886,8.54171576 L-1.40010466,8.54171576 C-1.58183664,8.54171576 -1.72915952,8.39439288 -1.72915952,8.2126609 C-1.72915952,8.08468665 -1.65496194,7.9683204 -1.53893554,7.91432704 L-0.600830252,7.47777591 C-0.600830252,4.11076148 1.52887527,-0.0137106192 4.47515091,-0.0137106192 Z" id="帽子阴影" fill="#FF9600" mask="url(#mask-3)"></path>
                        <polygon id="矩形" fill="#17173A" fill-rule="nonzero" mask="url(#mask-3)" points="0.245800934 4.99066539 13.6927383 4.99066539 13.6927383 6.33430607 0.245800934 6.33430607"></polygon>
                    </g>
                    <g id="灯" transform="translate(5.003386, 4.373688)">
                        <circle fill-opacity="0.119427448" fill="#000000" cx="2.08401412" cy="1.97432916" r="1.97432916"></circle>
                        <g>
                            <use fill="#FFFFFF" fill-rule="evenodd" xlink:href="#path-4"></use>
                            <use fill="black" fill-opacity="1" filter="url(#filter-5)" xlink:href="#path-4"></use>
                            <circle stroke="#17173A" stroke-width="0.607437558" stroke-linejoin="square" cx="1.97432916" cy="1.97432916" r="1.67061038"></circle>
                        </g>
                    </g>
                    <g id="编组" transform="translate(5.812312, 0.000000)" fill-rule="nonzero">
                        <path d="M0.471322354,1.92801936 C0.153665948,1.28677005 0.0534674851,1.09552883 0.116901344,0.840349355 C0.21557759,0.443859053 0.662342419,0.081033943 1.17466003,0.0873301514 C1.62165624,0.0928332327 2.03020731,0.378993464 2.20451952,0.81246789 C2.23158397,0.899944363 2.17245354,1.20153533 1.82388854,1.94628619 C1.6067105,2.41981949 1.36976733,2.97453211 1.16720726,3.35037676 C0.937471615,2.87516748 0.705507418,2.40104311 0.471322354,1.92801936 Z" id="路径" fill="#FF8A00"></path>
                        <path d="M0.370419834,1.92690061 C0.0545286709,1.28908044 -0.045112981,1.0988619 0.0179683711,0.845047022 C0.116096264,0.450676989 0.560378384,0.0897921202 1.06984901,0.096054659 C1.51436122,0.101528312 1.92064194,0.386158275 2.09398548,0.817314656 C2.12089953,0.90432334 2.0620977,1.20430152 1.71546969,1.94506975 C1.49949854,2.4160708 1.26387208,2.96781703 1.06243765,3.34165182 C0.833978665,2.86898377 0.603303512,2.39739482 0.370419834,1.92690061 Z" id="路径" fill="#FFAA30"></path>
                    </g>
                    <g id="编组-2" transform="translate(1.775184, 1.919487)" fill-rule="nonzero">
                        <path d="M2.23013607,0.861027692 C1.97432468,0.62177891 1.69634641,0.409033457 1.40020642,0.22585661 C1.36317644,0.216142945 0.859390571,0.0933736716 0.489946827,0.446764928 C0.182497353,0.740812134 0.100501572,1.23783198 0.302483279,1.66192775 C0.573770392,1.59792973 0.909041515,1.54722535 1.29304969,1.55147359 C2.12715547,1.56059059 2.78085434,1.82402901 3.16715303,2.0209515 C2.96687186,1.68862243 2.66673352,1.26957443 2.23013607,0.861027692 Z" id="路径" fill="#FF8A00" transform="translate(1.679551, 1.109195) rotate(7.000000) translate(-1.679551, -1.109195) "></path>
                        <path d="M3.07738455,1.91948669 C2.88356399,1.60465146 2.59311276,1.20765574 2.17059467,0.820605942 C1.92303704,0.593946692 1.65402348,0.392400277 1.3674314,0.218871667 C1.33159577,0.20966333 0.84405997,0.0933662989 0.486536761,0.428151003 C0.189009706,0.7067176 0.109657746,1.17757594 0.305121722,1.57935446 C0.567657678,1.51872235 0.892107109,1.47068687 1.26372491,1.47472056 C2.07095107,1.48334113 2.70355271,1.73293431 3.07738455,1.91948669 Z" id="路径" fill="#FFAA30" transform="translate(1.637770, 1.055718) rotate(7.000000) translate(-1.637770, -1.055718) "></path>
                    </g>
                    <g id="编组-2" transform="translate(10.146618, 3.419487) scale(-1, 1) translate(-10.146618, -3.419487) translate(8.146618, 1.919487)" fill-rule="nonzero">
                        <path d="M2.23013607,0.957002026 C1.97432468,0.717753244 1.69634641,0.505007791 1.40020642,0.321830944 C1.36317644,0.312117279 0.859390571,0.189348006 0.489946827,0.542739263 C0.182497353,0.836786469 0.100501572,1.33380632 0.302483279,1.75790208 C0.573770392,1.69390406 0.909041515,1.64319968 1.29304969,1.64744792 C2.12715547,1.65656492 2.78085434,1.92000334 3.16715303,2.11692583 C2.96687186,1.78459676 2.66673352,1.36554876 2.23013607,0.957002026 Z" id="路径" fill="#FF8A00" transform="translate(1.679551, 1.205170) rotate(7.000000) translate(-1.679551, -1.205170) "></path>
                        <path d="M3.07738455,1.91948669 C2.88356399,1.60465146 2.59311276,1.20765574 2.17059467,0.820605942 C1.92303704,0.593946692 1.65402348,0.392400277 1.3674314,0.218871667 C1.33159577,0.20966333 0.84405997,0.0933662989 0.486536761,0.428151003 C0.189009706,0.7067176 0.109657746,1.17757594 0.305121722,1.57935446 C0.567657678,1.51872235 0.892107109,1.47068687 1.26372491,1.47472056 C2.07095107,1.48334113 2.70355271,1.73293431 3.07738455,1.91948669 Z" id="路径" fill="#FFAA30" transform="translate(1.637770, 1.055718) rotate(7.000000) translate(-1.637770, -1.055718) "></path>
                    </g>
                </g>
            </g>
        </g>
    </g>
</svg>