<?xml version="1.0" encoding="UTF-8"?>
<svg width="20px" height="20px" viewBox="0 0 20 20" version="1.1" xmlns="http://www.w3.org/2000/svg" xmlns:xlink="http://www.w3.org/1999/xlink">
    <title>切片</title>
    <defs>
        <filter id="filter-1">
            <feColorMatrix in="SourceGraphic" type="matrix" values="0 0 0 0 0.470588 0 0 0 0 0.470588 0 0 0 0 0.470588 0 0 0 1.000000 0"></feColorMatrix>
        </filter>
    </defs>
    <g id="最终" stroke="none" stroke-width="1" fill="none" fill-rule="evenodd">
        <g id="首页" transform="translate(-950.000000, -5525.000000)">
            <g id="编组-9" transform="translate(822.000000, 5517.000000)">
                <g id="Discord" transform="translate(120.000000, 0.000000)" filter="url(#filter-1)">
                    <g transform="translate(8.000000, 8.000000)">
                        <rect id="矩形" fill="#D8D8D8" opacity="0" x="0" y="0" width="20" height="20"></rect>
                        <path d="M6.63531351,9.44416872 C7.62541252,9.44416872 8.42739271,10.186743 8.40924091,11.0943337 C8.40924091,12.0019245 7.62706269,12.7444988 6.63531351,12.7444988 C5.66171616,12.7444988 4.85973596,12.0019245 4.85973596,11.0943337 C4.85973596,10.186743 5.64356436,9.44416872 6.63531351,9.44416872 Z M12.9851485,9.44416872 C13.9768977,9.44416872 14.7607261,10.186743 14.7607261,11.0943337 C14.7607261,12.0019245 13.9768977,12.7444988 12.9851485,12.7444988 C12.0115512,12.7444988 11.2112211,12.0019245 11.2112211,11.0943337 C11.2112211,10.186743 11.9933993,9.44416872 12.9851485,9.44416872 L12.9851485,9.44416872 Z M14.630363,17.2213964 C18.3811881,17.1009344 19.8250825,14.5877331 19.8250825,14.5877331 C19.8250825,9.00852516 17.3795379,4.48542286 17.3795379,4.48542286 C14.9372937,2.61578591 12.610561,2.6668033 12.610561,2.6668033 L12.3729373,2.94416872 C15.2590759,3.84515882 16.5990099,5.14548884 16.5990099,5.14548888 C15.0232147,4.25768025 13.2865347,3.69224957 11.490099,3.48212254 C10.3505584,3.35341592 9.19955705,3.36449922 8.06270626,3.51512583 C7.96039604,3.51512583 7.87458745,3.53327763 7.77392737,3.54977929 C7.17986796,3.60258456 5.73597358,3.82700702 3.92079208,4.64218852 C3.29372939,4.93591791 2.9191419,5.14548884 2.9191419,5.14548888 C2.9191419,5.14548892 4.32838281,3.77585193 7.38283826,2.87486179 L7.21287129,2.6668033 C7.21287129,2.6668033 4.88778879,2.61578587 2.44389438,4.48707304 C2.44389438,4.48707304 0,9.00852519 0,14.5877331 C0,14.5877331 1.42574257,17.0992842 5.17656764,17.2213964 C5.17656764,17.2213964 5.80363034,16.4425185 6.31518151,15.7841027 C4.15841584,15.1240367 3.34488448,13.7378981 3.34488448,13.7378981 C3.34488448,13.7378981 3.51320131,13.8600103 3.81848182,14.0332776 C3.83498349,14.0497793 3.85148511,14.0679311 3.88613861,14.0844328 C3.93729374,14.1207364 3.98844883,14.137238 4.03960396,14.1718915 C4.46369636,14.4144657 4.88778879,14.6042347 5.27722772,14.7610004 C5.97359735,15.0382281 6.80528052,15.3154558 7.77392737,15.506875 C9.22494909,15.7912976 10.7168509,15.7968978 12.169967,15.5233766 C13.0163654,15.3723082 13.8421341,15.1225284 14.630363,14.7791522 C15.2244224,14.5530796 15.8861386,14.2230466 16.5825082,13.7560499 C16.5825082,13.7560499 15.7343234,15.176842 13.509901,15.8187562 C14.019802,16.477172 14.6320132,17.2213964 14.6320132,17.2213964 L14.630363,17.2213964 Z" id="形状" fill="#1D1929" fill-rule="nonzero"></path>
                    </g>
                </g>
            </g>
        </g>
    </g>
</svg>