<?xml version="1.0" encoding="UTF-8"?>
<svg width="20px" height="20px" viewBox="0 0 20 20" version="1.1" xmlns="http://www.w3.org/2000/svg" xmlns:xlink="http://www.w3.org/1999/xlink">
    <title>切片</title>
    <defs>
        <filter id="filter-1">
            <feColorMatrix in="SourceGraphic" type="matrix" values="0 0 0 0 0.470588 0 0 0 0 0.470588 0 0 0 0 0.470588 0 0 0 1.000000 0"></feColorMatrix>
        </filter>
        <filter id="filter-2">
            <feColorMatrix in="SourceGraphic" type="matrix" values="0 0 0 0 1.000000 0 0 0 0 0.588235 0 0 0 0 0.000000 0 0 0 1.000000 0"></feColorMatrix>
        </filter>
    </defs>
    <g id="最终" stroke="none" stroke-width="1" fill="none" fill-rule="evenodd">
        <g id="首页" transform="translate(-1070.000000, -5525.000000)">
            <g id="编组-31" transform="translate(822.000000, 5517.000000)" filter="url(#filter-1)">
                <g transform="translate(248.000000, 8.000000)" id="Github" filter="url(#filter-2)">
                    <g>
                        <rect id="矩形" fill="#D8D8D8" opacity="0" x="0" y="0" width="20" height="20"></rect>
                        <path d="M9.32287115,19.3333333 C8.41760762,19.3364937 7.68031196,18.6055083 7.67402149,17.6985854 L7.66749132,16.5285869 C4.42694935,17.2346731 3.74339094,15.1515885 3.74339094,15.1515885 C3.2133649,13.8032216 2.44977521,13.4448492 2.44977521,13.4448492 C1.3930249,12.7199449 2.52982482,12.7346649 2.52982482,12.7346649 C3.6984685,12.8164799 4.31424888,13.937393 4.31424888,13.937393 C5.35304122,15.7210406 7.03947604,15.2055805 7.7034256,14.9077607 C7.80796336,14.1533978 8.11013048,13.6387647 8.44333425,13.3466785 C5.85612114,13.0521299 3.13659871,12.0506681 3.13659871,7.58011855 C3.13659871,6.30621581 3.5914911,5.26548212 4.33710448,4.44812246 C4.2162413,4.1535738 3.81769914,2.96721972 4.44980495,1.36030499 C4.44980495,1.36030499 5.42817487,1.04693815 7.65360554,2.55647246 C8.60392846,2.29743872 9.58425845,2.16538866 10.5691248,2.16375317 C11.5580971,2.16785127 12.5552504,2.29711601 13.4862583,2.55647246 C15.7100564,1.04695653 16.6867938,1.36030499 16.6867938,1.36030499 C17.3205321,2.96802831 16.92199,4.15440077 16.8011268,4.44812246 C17.5475656,5.26467353 18,6.30621581 18,7.58013693 C18,12.0621354 15.2747545,13.0488588 12.6818367,13.3376737 C13.0991622,13.7001259 13.4715654,14.4094832 13.4715654,15.4984936 C13.4715654,17.0604027 13.4658423,17.6977584 13.4658423,17.6977584 C13.4595648,18.6041788 12.7233907,19.3351452 11.8186252,19.3333333 L9.3228528,19.3333333 L9.32287115,19.3333333 Z" id="路径" fill="#1D1929" fill-rule="nonzero"></path>
                    </g>
                </g>
            </g>
        </g>
    </g>
</svg>