<?xml version="1.0" encoding="UTF-8"?>
<svg width="20px" height="20px" viewBox="0 0 20 20" version="1.1" xmlns="http://www.w3.org/2000/svg" xmlns:xlink="http://www.w3.org/1999/xlink">
    <title>切片</title>
    <defs>
        <filter id="filter-1">
            <feColorMatrix in="SourceGraphic" type="matrix" values="0 0 0 0 0.470588 0 0 0 0 0.470588 0 0 0 0 0.470588 0 0 0 1.000000 0"></feColorMatrix>
        </filter>
    </defs>
    <g id="最终" stroke="none" stroke-width="1" fill="none" fill-rule="evenodd">
        <g id="首页" transform="translate(-1010.000000, -5525.000000)">
            <g id="编组-9" transform="translate(822.000000, 5517.000000)">
                <g id="medium" transform="translate(180.000000, 0.000000)" filter="url(#filter-1)">
                    <g transform="translate(8.000000, 8.000000)">
                        <path d="M18.276308,7.45727563 C18.1904299,7.65731747 18.0374197,7.82094865 17.8437928,7.91981304 L9.14716117,12.3602454 C8.88922729,12.4919445 8.58483283,12.4959033 8.32357508,12.3709566 L2.08872558,9.38913605 C2.00851836,9.35077689 1.93630039,9.30241011 1.8728501,9.24624006 C1.64291186,9.47243488 1.45284342,9.74367183 1.31787313,10.0498904 C0.954417849,10.8744925 1.27482545,11.8204126 2.04767374,12.2499197 L2.13219965,12.2939332 L7.53180615,14.923235 C7.69791551,14.6370065 7.94696142,14.3926159 8.26551121,14.2299669 C8.93387128,13.8887074 9.71289646,14.0070077 10.2321097,14.4688154 L10.198072,14.4046727 L16.4970963,11.1880666 C16.4632743,10.5218615 16.8230825,9.86053757 17.4660583,9.53223914 C18.3321927,9.08999765 19.3841761,9.41953267 19.815729,10.2682762 C20.2472819,11.1170197 19.894984,12.1635699 19.0288496,12.6058114 C18.307594,12.9740789 17.4574635,12.8071669 16.9440415,12.2509201 L10.7672088,15.4047628 C10.9144999,16.1479532 10.5495582,16.9352715 9.82830254,17.3035391 C8.96216813,17.7457806 7.91018471,17.4162455 7.4786318,16.567502 C7.37800562,16.3695985 7.31999687,16.1609404 7.30118248,15.9516965 L7.23778639,16.0761302 L1.60117468,13.3322542 C0.216373122,12.6581394 -0.376918601,11.0232031 0.248416244,9.60445251 C0.585429895,8.83984087 1.15874183,8.22525429 1.85810827,7.82869192 L2.06705702,7.71604607 L2.06705702,7.71604607 L10.4515095,3.43500989 C10.6980943,3.30910559 10.9877966,3.29967121 11.2420186,3.40926635 L17.7890472,6.23169068 C18.2613294,6.43529156 18.4794835,6.98400463 18.276308,7.45727563 Z M9.56966523,15.4998366 C9.42581426,15.2169221 9.07515312,15.1070771 8.78644165,15.2544909 C8.49773018,15.4019048 8.38029755,15.7507548 8.52414852,16.0336693 C8.66799949,16.3165838 9.01866063,16.4264288 9.30737209,16.279015 C9.59608356,16.1316012 9.7135162,15.7827511 9.56966523,15.4998366 Z M18.7702123,10.8021089 C18.6263613,10.5191944 18.2757002,10.4093494 17.9869887,10.5567632 C17.6982772,10.704177 17.5808446,11.0530271 17.7246956,11.3359416 C17.8685465,11.6188561 18.2192077,11.7287011 18.5079192,11.5812873 C18.7966306,11.4338735 18.9140633,11.0850234 18.7702123,10.8021089 Z" id="形状" fill="#1D1929"></path>
                    </g>
                </g>
            </g>
        </g>
    </g>
</svg>