<?xml version="1.0" encoding="UTF-8"?>
<svg width="20px" height="20px" viewBox="0 0 20 20" version="1.1" xmlns="http://www.w3.org/2000/svg" xmlns:xlink="http://www.w3.org/1999/xlink">
    <title>切片</title>
    <defs>
        <filter id="filter-1">
            <feColorMatrix in="SourceGraphic" type="matrix" values="0 0 0 0 0.470588 0 0 0 0 0.470588 0 0 0 0 0.470588 0 0 0 1.000000 0"></feColorMatrix>
        </filter>
        <filter id="filter-2">
            <feColorMatrix in="SourceGraphic" type="matrix" values="0 0 0 0 0.113725 0 0 0 0 0.098039 0 0 0 0 0.160784 0 0 0 1.000000 0"></feColorMatrix>
        </filter>
    </defs>
    <g id="最终" stroke="none" stroke-width="1" fill="none" fill-rule="evenodd">
        <g id="首页" transform="translate(-830.000000, -5525.000000)">
            <g id="Twitter" transform="translate(822.000000, 5517.000000)" filter="url(#filter-1)">
                <g transform="translate(8.000000, 8.000000)">
                    <rect id="矩形" fill="#D8D8D8" opacity="0" x="0" y="0" width="20" height="20"></rect>
                    <g filter="url(#filter-2)" id="twitter">
                        <g transform="translate(0.666667, 2.000000)">
                            <path d="M18.6666667,1.84785417 C17.9696738,2.16504526 17.2281057,2.37332438 16.4678889,2.46540972 C17.2729161,1.96855596 17.8710174,1.19724003 18.1517778,0.293854167 C17.4020705,0.750092945 16.5784936,1.07199593 15.7181111,1.24507638 C15.0028191,0.456714237 13.9880541,0.00680590022 12.9235555,0.00607638281 C10.8095555,0.00607638281 9.09533333,1.76385417 9.09533333,3.93307638 C9.09533333,4.24107638 9.128,4.53974305 9.19333333,4.82752083 C6.01066667,4.66340972 3.18888888,3.10085417 1.29888888,0.7231875 C0.95808931,1.32575024 0.779598068,2.0064826 0.780888883,2.69874305 C0.780888883,4.06063193 1.45755555,5.26307638 2.48422222,5.96774305 C1.87489735,5.94744895 1.27964722,5.77928412 0.749777784,5.47774305 L0.749777784,5.52596528 C0.749777784,7.4291875 2.06966667,9.01663195 3.822,9.37596528 C3.49410697,9.46892647 3.15481428,9.51552685 2.814,9.51440972 C2.56744445,9.51440972 2.32633333,9.49107638 2.093,9.44440972 C2.57988888,11.0046319 3.99388888,12.1401875 5.67,12.1705208 C4.07833716,13.4584069 2.03244741,14.0457934 4.79715033e-15,13.7984097 C1.74214285,14.9480569 3.78338374,15.5611323 5.87066667,15.561632 C12.9157778,15.561632 16.7673333,9.57896528 16.7673333,4.38885417 C16.7673333,4.21774305 16.7634445,4.04740972 16.7572222,3.8801875 C17.5054444,3.32640972 18.1548889,2.63574305 18.6666667,1.84785417" id="路径" fill="#7D7D7D" fill-rule="nonzero"></path>
                        </g>
                    </g>
                </g>
            </g>
        </g>
    </g>
</svg>