<?xml version="1.0" encoding="UTF-8"?>
<svg width="24px" height="24px" viewBox="0 0 24 24" version="1.1" xmlns="http://www.w3.org/2000/svg" xmlns:xlink="http://www.w3.org/1999/xlink">
    <title>切片</title>
    <defs>
        <linearGradient x1="0%" y1="23.8981956%" x2="90.8234459%" y2="30.0528327%" id="linearGradient-1">
            <stop stop-color="#2167EC" offset="0%"></stop>
            <stop stop-color="#1457D8" offset="100%"></stop>
        </linearGradient>
    </defs>
    <g id="定稿" stroke="none" stroke-width="1" fill="none" fill-rule="evenodd">
        <g id="保险-发行保险交互展示" transform="translate(-326.000000, -414.000000)">
            <g id="编组-8" transform="translate(326.000000, 414.000000)">
                <g id="编组-11" fill="url(#linearGradient-1)">
                    <circle id="椭圆形" cx="12" cy="12" r="12"></circle>
                </g>
                <path d="M12,5.4 C15.2805714,5.4 17.9462114,7.9691252 17.9991962,11.1579924 L18,11.2548125 L18,17.5987867 L12.8442222,18.6 L12.8444444,15.8219616 L12.8450855,15.7617662 C12.880029,14.1223762 14.3392372,12.7988771 16.1486773,12.7638752 L16.2222222,12.7631645 L16.2222222,11.2337659 L15.891383,11.1733094 C13.4167091,10.7210951 10.8796378,10.7043372 8.40001391,11.123222 L8.18137569,11.161313 L7.77777778,11.2337659 L7.77777778,12.7631645 L7.84760796,12.7638052 C9.63395489,12.7966104 11.079849,14.0852176 11.1526774,15.6945285 L11.1549145,15.7617662 L11.1553333,15.8018333 L11.1553333,18.5980484 L6,17.5987867 L6,11.2548125 L6.00080383,11.1579924 C6.05378857,7.9691252 8.71942858,5.4 12,5.4 Z" id="路径" fill="#FFFFFF" fill-rule="nonzero"></path>
            </g>
        </g>
    </g>
</svg>