<?xml version="1.0" encoding="UTF-8"?>
<svg width="24px" height="24px" viewBox="0 0 24 24" version="1.1" xmlns="http://www.w3.org/2000/svg" xmlns:xlink="http://www.w3.org/1999/xlink">
    <title>切片</title>
    <g id="定稿" stroke="none" stroke-width="1" fill="none" fill-rule="evenodd">
        <g id="Bridge" transform="translate(-703.000000, -235.000000)">
            <g id="coin-line-(2)" transform="translate(703.000000, 235.000000)">
                <polygon id="路径" points="0 0 24 0 24 24 0 24"></polygon>
                <path d="M12,4 C18.075,4 23,6.686 23,10 L23,14 C23,17.314 18.075,20 12,20 C6.033,20 1.176,17.409 1.005,14.177 L1,14 L1,10 C1,6.686 5.925,4 12,4 Z M12,16 C8.28,16 4.99,14.993 3,13.45 L3,14 C3,15.882 6.883,18 12,18 C17.01,18 20.838,15.97 20.995,14.118 L21,14 L21.001,13.45 C19.011,14.992 15.721,16 12,16 Z M12,6 C6.883,6 3,8.118 3,10 C3,11.882 6.883,14 12,14 C17.117,14 21,11.882 21,10 C21,8.118 17.117,6 12,6 Z" id="形状" fill="#FD7E14" fill-rule="nonzero"></path>
            </g>
        </g>
    </g>
</svg>