<?xml version="1.0" encoding="UTF-8"?>
<svg width="40px" height="40px" viewBox="0 0 40 40" version="1.1" xmlns="http://www.w3.org/2000/svg" xmlns:xlink="http://www.w3.org/1999/xlink">
    <title>切片</title>
    <g id="IBO" stroke="none" stroke-width="1" fill="none" fill-rule="evenodd">
        <g transform="translate(-322.000000, -330.000000)" id="chainswap备份-2">
            <g transform="translate(322.000000, 330.000000)" id="game1-logo">
                <circle id="XMLID_132_" fill="#D55AA1" cx="20.2083333" cy="20.3333333" r="20"></circle>
                <path d="M30.1666667,16.7083333 L23.7916667,14.5833333 L22.8333333,17.4166667 C22.8333333,17.4166667 22.1666667,15.8333333 21.6666667,15.625 L23.5,10.125 L25.4583333,10.7916667 C25.4583333,10.7916667 26.9583333,11.0416667 26.0416667,13.75 L29.5833333,14.9166667 C29.5833333,14.9166667 32,9.04166667 26.625,7.25 C21.25,5.45833333 20.0833333,5.08333333 20.0833333,5.08333333 C20.0833333,5.08333333 20.7916667,5.875 20.5416667,6.625 C20.2916667,7.375 18.0416667,14.0833333 18.0416667,14.0833333 C18.0416667,14.0833333 15.3333333,9.79166667 19.4166667,5.29166667 C19.4166667,5.29166667 16.9166667,5.70833333 16.125,8.125 C15.3333333,10.5416667 11.2083333,22.8333333 11.2083333,22.8333333 C11.2083333,22.8333333 10.375,23.9166667 9.75,23.7083333 C10.2916667,23.875 16.125,25.8333333 16.125,25.8333333 L17.0833333,23 C17.0833333,23 17.5833333,24.5416667 18.625,24.875 L16.8333333,30.2083333 L14.3333333,29.375 C14.3333333,29.375 13.0416667,29.0833333 13.875,26.6666667 L10.5,25.5416667 C10.5,25.5416667 8.33333333,31.5 13.0833333,33.0833333 C17.8333333,34.6666667 19.8333333,35.3333333 19.8333333,35.3333333 C19.8333333,35.3333333 19.125,34.5833333 19.375,33.7916667 C19.625,33.0416667 21.9166667,26.1666667 21.9166667,26.1666667 C21.9166667,26.1666667 24.4583333,29.125 20.875,35.25 C20.875,35.25 23.125,34.375 23.8333333,32.2916667 C24.5416667,30.2083333 28.8333333,17.25 28.8333333,17.25 C28.8333333,17.25 28.8333333,16.7916667 30.1666667,16.7083333 Z M15.5,21.6666667 L16.4583333,18.8333333 C15.7916667,20.8333333 16.5833333,22.0416667 16.5833333,22.0416667 L15.5,21.6666667 Z M23.5833333,21.625 C23.5833333,21.625 24.0833333,18.4583333 23.1666667,18.125 L24.5833333,18.5833333 L23.5833333,21.625 Z" id="XMLID_128_" fill="#FFFFFF"></path>
            </g>
        </g>
    </g>
</svg>